<svg xmlns="http://www.w3.org/2000/svg" viewBox="0 0 800 600" width="800" height="600" role="img">
<defs><linearGradient id="pat7" x1="0" y1="0" x2="1" y2="1"><stop offset="0%" stop-color="#D8F3DC"/><stop offset="100%" stop-color="#F1FAEE"/></linearGradient></defs>
<rect width="800" height="600" fill="url(#pat7)"/>
<g transform="translate(42,58) scale(1.2)"><ellipse cx="0" cy="-16" rx="9" ry="15" fill="#5FBF8A" transform="rotate(0)"/><ellipse cx="0" cy="-16" rx="9" ry="15" fill="#5FBF8A" transform="rotate(72)"/><ellipse cx="0" cy="-16" rx="9" ry="15" fill="#5FBF8A" transform="rotate(144)"/><ellipse cx="0" cy="-16" rx="9" ry="15" fill="#5FBF8A" transform="rotate(216)"/><ellipse cx="0" cy="-16" rx="9" ry="15" fill="#5FBF8A" transform="rotate(288)"/><circle r="8" fill="#FFC94D"/></g>
<path transform="translate(192,58) scale(0.95)" fill="#FF9EC4" d="M0,-16 C2,-5 5,-2 16,0 C5,2 2,5 0,16 C-2,5 -5,2 -16,0 C-5,-2 -2,-5 0,-16 Z"/>
<circle cx="342" cy="58" r="21" fill="#9FE3C0" opacity="0.95"/><circle cx="342" cy="58" r="9" fill="#FFC94D" opacity="0.95"/>
<circle cx="492" cy="58" r="9" fill="#5FBF8A" opacity="0.85"/><ellipse cx="528" cy="84" rx="13" ry="8" fill="#FF9EC4" opacity="0.8"/>
<g transform="translate(642,58) scale(1.2)"><ellipse cx="0" cy="-16" rx="9" ry="15" fill="#5FBF8A" transform="rotate(0)"/><ellipse cx="0" cy="-16" rx="9" ry="15" fill="#5FBF8A" transform="rotate(72)"/><ellipse cx="0" cy="-16" rx="9" ry="15" fill="#5FBF8A" transform="rotate(144)"/><ellipse cx="0" cy="-16" rx="9" ry="15" fill="#5FBF8A" transform="rotate(216)"/><ellipse cx="0" cy="-16" rx="9" ry="15" fill="#5FBF8A" transform="rotate(288)"/><circle r="8" fill="#FFC94D"/></g>
<path transform="translate(792,58) scale(0.95)" fill="#FF9EC4" d="M0,-16 C2,-5 5,-2 16,0 C5,2 2,5 0,16 C-2,5 -5,2 -16,0 C-5,-2 -2,-5 0,-16 Z"/>
<circle cx="942" cy="58" r="21" fill="#9FE3C0" opacity="0.95"/><circle cx="942" cy="58" r="9" fill="#FFC94D" opacity="0.95"/>
<circle cx="117" cy="190" r="9" fill="#5FBF8A" opacity="0.85"/><ellipse cx="153" cy="216" rx="13" ry="8" fill="#FF9EC4" opacity="0.8"/>
<g transform="translate(267,190) scale(1.2)"><ellipse cx="0" cy="-16" rx="9" ry="15" fill="#5FBF8A" transform="rotate(0)"/><ellipse cx="0" cy="-16" rx="9" ry="15" fill="#5FBF8A" transform="rotate(72)"/><ellipse cx="0" cy="-16" rx="9" ry="15" fill="#5FBF8A" transform="rotate(144)"/><ellipse cx="0" cy="-16" rx="9" ry="15" fill="#5FBF8A" transform="rotate(216)"/><ellipse cx="0" cy="-16" rx="9" ry="15" fill="#5FBF8A" transform="rotate(288)"/><circle r="8" fill="#FFC94D"/></g>
<path transform="translate(417,190) scale(0.95)" fill="#FF9EC4" d="M0,-16 C2,-5 5,-2 16,0 C5,2 2,5 0,16 C-2,5 -5,2 -16,0 C-5,-2 -2,-5 0,-16 Z"/>
<circle cx="567" cy="190" r="21" fill="#9FE3C0" opacity="0.95"/><circle cx="567" cy="190" r="9" fill="#FFC94D" opacity="0.95"/>
<circle cx="717" cy="190" r="9" fill="#5FBF8A" opacity="0.85"/><ellipse cx="753" cy="216" rx="13" ry="8" fill="#FF9EC4" opacity="0.8"/>
<g transform="translate(867,190) scale(1.2)"><ellipse cx="0" cy="-16" rx="9" ry="15" fill="#5FBF8A" transform="rotate(0)"/><ellipse cx="0" cy="-16" rx="9" ry="15" fill="#5FBF8A" transform="rotate(72)"/><ellipse cx="0" cy="-16" rx="9" ry="15" fill="#5FBF8A" transform="rotate(144)"/><ellipse cx="0" cy="-16" rx="9" ry="15" fill="#5FBF8A" transform="rotate(216)"/><ellipse cx="0" cy="-16" rx="9" ry="15" fill="#5FBF8A" transform="rotate(288)"/><circle r="8" fill="#FFC94D"/></g>
<path transform="translate(1017,190) scale(0.95)" fill="#FF9EC4" d="M0,-16 C2,-5 5,-2 16,0 C5,2 2,5 0,16 C-2,5 -5,2 -16,0 C-5,-2 -2,-5 0,-16 Z"/>
<circle cx="42" cy="322" r="21" fill="#9FE3C0" opacity="0.95"/><circle cx="42" cy="322" r="9" fill="#FFC94D" opacity="0.95"/>
<circle cx="192" cy="322" r="9" fill="#5FBF8A" opacity="0.85"/><ellipse cx="228" cy="348" rx="13" ry="8" fill="#FF9EC4" opacity="0.8"/>
<g transform="translate(342,322) scale(1.2)"><ellipse cx="0" cy="-16" rx="9" ry="15" fill="#5FBF8A" transform="rotate(0)"/><ellipse cx="0" cy="-16" rx="9" ry="15" fill="#5FBF8A" transform="rotate(72)"/><ellipse cx="0" cy="-16" rx="9" ry="15" fill="#5FBF8A" transform="rotate(144)"/><ellipse cx="0" cy="-16" rx="9" ry="15" fill="#5FBF8A" transform="rotate(216)"/><ellipse cx="0" cy="-16" rx="9" ry="15" fill="#5FBF8A" transform="rotate(288)"/><circle r="8" fill="#FFC94D"/></g>
<path transform="translate(492,322) scale(0.95)" fill="#FF9EC4" d="M0,-16 C2,-5 5,-2 16,0 C5,2 2,5 0,16 C-2,5 -5,2 -16,0 C-5,-2 -2,-5 0,-16 Z"/>
<circle cx="642" cy="322" r="21" fill="#9FE3C0" opacity="0.95"/><circle cx="642" cy="322" r="9" fill="#FFC94D" opacity="0.95"/>
<circle cx="792" cy="322" r="9" fill="#5FBF8A" opacity="0.85"/><ellipse cx="828" cy="348" rx="13" ry="8" fill="#FF9EC4" opacity="0.8"/>
<g transform="translate(942,322) scale(1.2)"><ellipse cx="0" cy="-16" rx="9" ry="15" fill="#5FBF8A" transform="rotate(0)"/><ellipse cx="0" cy="-16" rx="9" ry="15" fill="#5FBF8A" transform="rotate(72)"/><ellipse cx="0" cy="-16" rx="9" ry="15" fill="#5FBF8A" transform="rotate(144)"/><ellipse cx="0" cy="-16" rx="9" ry="15" fill="#5FBF8A" transform="rotate(216)"/><ellipse cx="0" cy="-16" rx="9" ry="15" fill="#5FBF8A" transform="rotate(288)"/><circle r="8" fill="#FFC94D"/></g>
<path transform="translate(117,454) scale(0.95)" fill="#FF9EC4" d="M0,-16 C2,-5 5,-2 16,0 C5,2 2,5 0,16 C-2,5 -5,2 -16,0 C-5,-2 -2,-5 0,-16 Z"/>
<circle cx="267" cy="454" r="21" fill="#9FE3C0" opacity="0.95"/><circle cx="267" cy="454" r="9" fill="#FFC94D" opacity="0.95"/>
<circle cx="417" cy="454" r="9" fill="#5FBF8A" opacity="0.85"/><ellipse cx="453" cy="480" rx="13" ry="8" fill="#FF9EC4" opacity="0.8"/>
<g transform="translate(567,454) scale(1.2)"><ellipse cx="0" cy="-16" rx="9" ry="15" fill="#5FBF8A" transform="rotate(0)"/><ellipse cx="0" cy="-16" rx="9" ry="15" fill="#5FBF8A" transform="rotate(72)"/><ellipse cx="0" cy="-16" rx="9" ry="15" fill="#5FBF8A" transform="rotate(144)"/><ellipse cx="0" cy="-16" rx="9" ry="15" fill="#5FBF8A" transform="rotate(216)"/><ellipse cx="0" cy="-16" rx="9" ry="15" fill="#5FBF8A" transform="rotate(288)"/><circle r="8" fill="#FFC94D"/></g>
<path transform="translate(717,454) scale(0.95)" fill="#FF9EC4" d="M0,-16 C2,-5 5,-2 16,0 C5,2 2,5 0,16 C-2,5 -5,2 -16,0 C-5,-2 -2,-5 0,-16 Z"/>
<circle cx="867" cy="454" r="21" fill="#9FE3C0" opacity="0.95"/><circle cx="867" cy="454" r="9" fill="#FFC94D" opacity="0.95"/>
<circle cx="1017" cy="454" r="9" fill="#5FBF8A" opacity="0.85"/><ellipse cx="1053" cy="480" rx="13" ry="8" fill="#FF9EC4" opacity="0.8"/>
<g transform="translate(42,586) scale(1.2)"><ellipse cx="0" cy="-16" rx="9" ry="15" fill="#5FBF8A" transform="rotate(0)"/><ellipse cx="0" cy="-16" rx="9" ry="15" fill="#5FBF8A" transform="rotate(72)"/><ellipse cx="0" cy="-16" rx="9" ry="15" fill="#5FBF8A" transform="rotate(144)"/><ellipse cx="0" cy="-16" rx="9" ry="15" fill="#5FBF8A" transform="rotate(216)"/><ellipse cx="0" cy="-16" rx="9" ry="15" fill="#5FBF8A" transform="rotate(288)"/><circle r="8" fill="#FFC94D"/></g>
<path transform="translate(192,586) scale(0.95)" fill="#FF9EC4" d="M0,-16 C2,-5 5,-2 16,0 C5,2 2,5 0,16 C-2,5 -5,2 -16,0 C-5,-2 -2,-5 0,-16 Z"/>
<circle cx="342" cy="586" r="21" fill="#9FE3C0" opacity="0.95"/><circle cx="342" cy="586" r="9" fill="#FFC94D" opacity="0.95"/>
<circle cx="492" cy="586" r="9" fill="#5FBF8A" opacity="0.85"/><ellipse cx="528" cy="612" rx="13" ry="8" fill="#FF9EC4" opacity="0.8"/>
<g transform="translate(642,586) scale(1.2)"><ellipse cx="0" cy="-16" rx="9" ry="15" fill="#5FBF8A" transform="rotate(0)"/><ellipse cx="0" cy="-16" rx="9" ry="15" fill="#5FBF8A" transform="rotate(72)"/><ellipse cx="0" cy="-16" rx="9" ry="15" fill="#5FBF8A" transform="rotate(144)"/><ellipse cx="0" cy="-16" rx="9" ry="15" fill="#5FBF8A" transform="rotate(216)"/><ellipse cx="0" cy="-16" rx="9" ry="15" fill="#5FBF8A" transform="rotate(288)"/><circle r="8" fill="#FFC94D"/></g>
<path transform="translate(792,586) scale(0.95)" fill="#FF9EC4" d="M0,-16 C2,-5 5,-2 16,0 C5,2 2,5 0,16 C-2,5 -5,2 -16,0 C-5,-2 -2,-5 0,-16 Z"/>
<circle cx="942" cy="586" r="21" fill="#9FE3C0" opacity="0.95"/><circle cx="942" cy="586" r="9" fill="#FFC94D" opacity="0.95"/>
</svg>